<?xml version="1.0" encoding="iso-8859-1"?>
<!-- Uploaded to: SVG Repo, www.svgrepo.com, Generator: SVG Repo Mixer Tools -->
<svg version="1.1" id="Layer_1" xmlns="http://www.w3.org/2000/svg" xmlns:xlink="http://www.w3.org/1999/xlink" 
	 viewBox="0 0 512 512" xml:space="preserve">
<circle style="fill:#273B7A;" cx="256" cy="256" r="256"/>
<path style="fill:#121149;" d="M502.748,324.386l-207.96-207.962l-27.295,45.909l-31.499,34.933l54.782,54.782l-0.369,12.498
	l-36.993-36.992l-25.571,55.453l-21.751,31.691l-30.255-30.255l-25.822,50.604l15.953,15.953l-52.191,47.221L225.77,510.214
	C235.685,511.381,245.77,512,256,512C373.7,512,472.831,432.564,502.748,324.386z"/>
<polygon style="fill:#FFEDB5;" points="353.582,197.267 294.788,116.424 235.994,197.267 265.612,197.267 265.612,397.36 
	323.965,397.36 323.965,197.267 "/>
<polygon style="fill:#FEE187;" points="294.788,116.424 294.502,116.819 294.502,397.36 323.963,397.36 323.963,197.267 
	353.582,197.267 "/>
<rect x="191.354" y="227.556" style="fill:#FFC61B;" width="62.061" height="170.667"/>
<rect x="222.091" y="227.556" style="fill:#EAA22F;" width="31.323" height="170.667"/>
<rect x="336.162" y="284.444" style="fill:#E09112;" width="62.061" height="113.778"/>
<rect x="365.761" y="284.444" style="fill:#FF5419;" width="32.466" height="113.778"/>
<rect x="113.778" y="284.444" style="fill:#E09112;" width="62.061" height="113.778"/>
<rect x="143.946" y="284.444" style="fill:#FF5419;" width="31.892" height="113.778"/>
</svg>