<?xml version="1.0" encoding="utf-8"?>
<svg viewBox="27.725 120.458 287.762 181.644" style="" xmlns="http://www.w3.org/2000/svg">
  <defs>
    <clipPath id="28d0fa984d">
      <path d="M 41.507812 99.515625 L 161.507812 99.515625 L 161.507812 275.765625 L 41.507812 275.765625 Z M 41.507812 99.515625 " clip-rule="nonzero"/>
    </clipPath>
  </defs>
  <g clip-path="url(#28d0fa984d)" transform="matrix(1, 0, 0, 1, -12.034490585327148, 23.7849769592285)">
    <path fill="#b20000" d="M 118.167969 99.539062 L 140.773438 99.539062 C 143.355469 99.539062 145.449219 101.625 145.460938 104.207031 C 145.460938 104.21875 145.460938 104.234375 145.460938 104.246094 L 146.53125 119.542969 C 146.554688 119.875 146.785156 120.152344 147.105469 120.234375 C 151.980469 121.507812 156.640625 123.296875 161.035156 125.539062 C 161.039062 125.539062 161.042969 125.542969 161.042969 125.546875 C 161.464844 125.761719 161.585938 126.304688 161.300781 126.679688 L 150.59375 140.742188 C 150.378906 141.023438 150 141.125 149.675781 140.984375 C 147.851562 140.1875 145.964844 139.496094 144.035156 138.917969 C 141.5625 138.175781 139.011719 137.621094 136.398438 137.261719 C 134.828125 137.050781 133.242188 136.90625 131.632812 136.839844 C 130.914062 136.808594 130.195312 136.792969 129.46875 136.792969 C 128.078125 136.792969 126.703125 136.851562 125.339844 136.960938 C 110.492188 138.15625 97.453125 145.75 88.976562 156.980469 C 82.566406 165.46875 78.765625 176.039062 78.765625 187.496094 C 78.765625 215.5 101.46875 238.199219 129.46875 238.199219 C 136.652344 238.199219 143.484375 236.703125 149.679688 234.011719 C 150.003906 233.871094 150.378906 233.96875 150.59375 234.25 L 151.597656 235.570312 L 161.292969 248.304688 C 161.582031 248.683594 161.457031 249.230469 161.035156 249.453125 C 160.984375 249.476562 160.933594 249.503906 160.882812 249.53125 C 160.8125 249.566406 160.746094 249.601562 160.675781 249.632812 C 158.472656 250.742188 156.199219 251.738281 153.871094 252.613281 C 151.667969 253.4375 149.410156 254.15625 147.105469 254.757812 C 146.785156 254.839844 146.554688 255.117188 146.53125 255.449219 L 145.460938 270.746094 C 145.460938 270.757812 145.460938 270.769531 145.460938 270.785156 C 145.449219 273.363281 143.355469 275.453125 140.773438 275.453125 L 118.167969 275.453125 C 115.585938 275.453125 113.488281 273.363281 113.480469 270.785156 C 113.480469 270.769531 113.476562 270.757812 113.476562 270.746094 L 112.410156 255.449219 C 112.386719 255.117188 112.15625 254.839844 111.832031 254.757812 C 105.636719 253.136719 99.777344 250.6875 94.382812 247.523438 C 94.097656 247.355469 93.738281 247.390625 93.488281 247.605469 L 81.910156 257.671875 C 81.902344 257.679688 81.890625 257.6875 81.882812 257.699219 C 80.050781 259.515625 77.09375 259.507812 75.265625 257.683594 L 59.28125 241.699219 C 57.457031 239.875 57.449219 236.914062 59.269531 235.085938 C 59.277344 235.074219 59.285156 235.066406 59.292969 235.054688 L 69.359375 223.476562 C 69.578125 223.230469 69.609375 222.867188 69.441406 222.582031 C 66.28125 217.1875 63.828125 211.328125 62.207031 205.132812 C 62.125 204.8125 61.847656 204.578125 61.515625 204.558594 L 46.21875 203.488281 C 46.207031 203.488281 46.191406 203.488281 46.179688 203.488281 C 43.597656 203.476562 41.511719 201.382812 41.511719 198.800781 L 41.511719 176.191406 C 41.511719 173.609375 43.597656 171.515625 46.179688 171.503906 C 46.191406 171.503906 46.207031 171.503906 46.21875 171.503906 L 61.515625 170.433594 C 61.847656 170.414062 62.125 170.179688 62.207031 169.859375 C 63.828125 163.664062 66.28125 157.804688 69.441406 152.410156 C 69.609375 152.125 69.578125 151.765625 69.359375 151.515625 L 67.664062 149.5625 L 59.292969 139.9375 C 59.285156 139.925781 59.277344 139.917969 59.269531 139.90625 C 57.449219 138.078125 57.457031 135.117188 59.28125 133.292969 L 75.265625 117.308594 C 77.09375 115.484375 80.050781 115.476562 81.882812 117.292969 C 81.890625 117.304688 81.902344 117.3125 81.910156 117.320312 L 93.488281 127.386719 C 93.738281 127.601562 94.097656 127.636719 94.382812 127.46875 C 99.042969 124.738281 104.050781 122.535156 109.324219 120.941406 C 110.152344 120.691406 110.988281 120.453125 111.832031 120.234375 C 112.15625 120.152344 112.386719 119.875 112.410156 119.542969 L 112.566406 117.277344 L 112.699219 115.382812 L 113.09375 109.714844 L 113.476562 104.246094 C 113.476562 104.234375 113.480469 104.21875 113.480469 104.207031 C 113.488281 101.625 115.585938 99.539062 118.167969 99.539062 " fill-opacity="1" fill-rule="nonzero"/>
  </g>
  <g fill="#ffffff" fill-opacity="1" transform="matrix(1, 0, 0, 1, -12.034490585327148, 23.7849769592285)">
    <g transform="translate(90.901073, 198.161949)">
      <g>
        <path d="M 33.046875 -27.640625 C 33.484375 -25.816406 33.703125 -23.675781 33.703125 -21.21875 L 33.703125 -14.421875 C 33.703125 -11.960938 33.484375 -9.828125 33.046875 -8.015625 C 32.847656 -7.117188 32.566406 -6.285156 32.203125 -5.515625 C 31.835938 -4.753906 31.425781 -4.085938 30.96875 -3.515625 C 30.019531 -2.296875 28.789062 -1.398438 27.28125 -0.828125 C 25.8125 -0.242188 24.066406 0.046875 22.046875 0.046875 L 7.234375 0.046875 C 6.566406 0.046875 5.9375 -0.117188 5.34375 -0.453125 C 4.757812 -0.785156 4.289062 -1.238281 3.9375 -1.8125 C 3.707031 -2.21875 3.550781 -2.664062 3.46875 -3.15625 L 3.515625 -32.75 C 3.566406 -32.914062 3.628906 -33.09375 3.703125 -33.28125 C 3.773438 -33.46875 3.851562 -33.648438 3.9375 -33.828125 C 4.632812 -34.953125 5.632812 -35.554688 6.9375 -35.640625 L 6.9375 -35.6875 L 22.046875 -35.6875 C 24.035156 -35.6875 25.78125 -35.398438 27.28125 -34.828125 C 28.757812 -34.242188 29.988281 -33.363281 30.96875 -32.1875 C 31.425781 -31.570312 31.835938 -30.890625 32.203125 -30.140625 C 32.566406 -29.390625 32.847656 -28.554688 33.046875 -27.640625 Z M 9.828125 -6.625 C 9.828125 -6.539062 9.832031 -6.484375 9.84375 -6.453125 C 9.863281 -6.421875 9.875 -6.40625 9.875 -6.40625 L 21.921875 -6.40625 C 22.410156 -6.40625 22.867188 -6.429688 23.296875 -6.484375 C 23.734375 -6.546875 24.125 -6.632812 24.46875 -6.75 C 25.132812 -7.007812 25.671875 -7.398438 26.078125 -7.921875 C 26.503906 -8.503906 26.804688 -9.253906 26.984375 -10.171875 C 27.066406 -10.671875 27.132812 -11.210938 27.1875 -11.796875 C 27.25 -12.390625 27.28125 -13.046875 27.28125 -13.765625 L 27.28125 -21.875 C 27.28125 -22.59375 27.25 -23.253906 27.1875 -23.859375 C 27.132812 -24.472656 27.066406 -25.023438 26.984375 -25.515625 C 26.804688 -26.429688 26.503906 -27.164062 26.078125 -27.71875 C 25.722656 -28.238281 25.1875 -28.628906 24.46875 -28.890625 C 23.78125 -29.148438 22.929688 -29.28125 21.921875 -29.28125 L 9.921875 -29.28125 C 9.859375 -29.28125 9.828125 -29.191406 9.828125 -29.015625 Z M 9.828125 -6.625 "/>
      </g>
    </g>
  </g>
  <g fill="#ffffff" fill-opacity="1" transform="matrix(1, 0, 0, 1, -12.034490585327148, 23.7849769592285)">
    <g transform="translate(130.218026, 198.161949)">
      <g>
        <path d="M 26.6875 -31.65625 L 38.84375 -1.640625 C 39.019531 -1.242188 39.066406 -0.898438 38.984375 -0.609375 C 38.953125 -0.492188 38.867188 -0.351562 38.734375 -0.1875 C 38.609375 -0.03125 38.375 0.046875 38.03125 0.046875 L 33.390625 0.046875 C 32.785156 0.046875 32.367188 -0.269531 32.140625 -0.90625 L 21.390625 -27.71875 C 21.367188 -27.78125 21.359375 -27.8125 21.359375 -27.8125 L 21.1875 -27.8125 C 21.1875 -27.8125 21.175781 -27.800781 21.15625 -27.78125 C 21.144531 -27.769531 21.125 -27.734375 21.09375 -27.671875 L 15.546875 -13.640625 L 20.921875 -13.640625 C 21.523438 -13.640625 21.941406 -13.351562 22.171875 -12.78125 L 23.734375 -8.921875 C 23.878906 -8.429688 23.820312 -8.015625 23.5625 -7.671875 C 23.332031 -7.265625 22.957031 -7.0625 22.4375 -7.0625 L 12.953125 -7.0625 L 10.484375 -0.859375 C 10.253906 -0.253906 9.847656 0.046875 9.265625 0.046875 L 4.5 0.046875 C 4.15625 0.046875 3.914062 -0.03125 3.78125 -0.1875 C 3.65625 -0.351562 3.578125 -0.492188 3.546875 -0.609375 C 3.460938 -0.867188 3.492188 -1.210938 3.640625 -1.640625 L 15.71875 -31.65625 C 16.300781 -33.1875 16.9375 -34.242188 17.625 -34.828125 C 17.71875 -34.878906 17.820312 -34.945312 17.9375 -35.03125 C 18.050781 -35.125 18.164062 -35.195312 18.28125 -35.25 C 19.144531 -35.863281 20.140625 -36.171875 21.265625 -36.171875 C 22.453125 -36.171875 23.519531 -35.804688 24.46875 -35.078125 C 25.425781 -34.359375 26.078125 -33.4375 26.421875 -32.3125 C 26.472656 -32.226562 26.519531 -32.125 26.5625 -32 C 26.613281 -31.882812 26.65625 -31.769531 26.6875 -31.65625 Z M 26.6875 -31.65625 "/>
      </g>
    </g>
  </g>
  <g fill="#ffffff" fill-opacity="1" transform="matrix(1, 0, 0, 1, -12.034490585327148, 23.7849769592285)">
    <g transform="translate(174.904256, 198.161949)">
      <g>
        <path d="M 28.453125 -6.40625 C 28.660156 -6.40625 28.914062 -6.316406 29.21875 -6.140625 C 29.519531 -5.972656 29.671875 -5.554688 29.671875 -4.890625 L 29.671875 -1.46875 C 29.671875 -0.800781 29.519531 -0.378906 29.21875 -0.203125 C 28.914062 -0.0351562 28.660156 0.046875 28.453125 0.046875 L 14.15625 0.046875 C 12.25 0.046875 10.632812 -0.195312 9.3125 -0.6875 C 7.957031 -1.15625 6.832031 -1.96875 5.9375 -3.125 C 5.09375 -4.15625 4.472656 -5.566406 4.078125 -7.359375 C 3.671875 -9.117188 3.46875 -11.1875 3.46875 -13.5625 L 3.46875 -34.171875 C 3.46875 -34.867188 3.625 -35.296875 3.9375 -35.453125 C 4.257812 -35.609375 4.519531 -35.6875 4.71875 -35.6875 L 8.703125 -35.6875 C 8.878906 -35.6875 9.125 -35.609375 9.4375 -35.453125 C 9.757812 -35.296875 9.921875 -34.867188 9.921875 -34.171875 L 9.921875 -12.828125 C 9.921875 -12.191406 9.929688 -11.597656 9.953125 -11.046875 C 9.984375 -10.492188 10.046875 -10.003906 10.140625 -9.578125 C 10.253906 -8.796875 10.5 -8.160156 10.875 -7.671875 C 11.15625 -7.203125 11.570312 -6.882812 12.125 -6.71875 C 12.707031 -6.507812 13.457031 -6.40625 14.375 -6.40625 Z M 28.453125 -6.40625 "/>
      </g>
    </g>
  </g>
  <g fill="#ffffff" fill-opacity="1" transform="matrix(1, 0, 0, 1, -12.034490585327148, 23.7849769592285)">
    <g transform="translate(116.199957, 215.864168)">
      <g>
        <path d="M 7.03125 -8.34375 L 10.25 -0.4375 C 10.289062 -0.332031 10.300781 -0.238281 10.28125 -0.15625 C 10.269531 -0.125 10.25 -0.0859375 10.21875 -0.046875 C 10.1875 -0.00390625 10.125 0.015625 10.03125 0.015625 L 8.8125 0.015625 C 8.644531 0.015625 8.53125 -0.0664062 8.46875 -0.234375 L 5.640625 -7.3125 C 5.628906 -7.320312 5.625 -7.328125 5.625 -7.328125 L 5.578125 -7.328125 C 5.578125 -7.328125 5.570312 -7.316406 5.5625 -7.296875 L 4.09375 -3.59375 L 5.515625 -3.59375 C 5.671875 -3.59375 5.78125 -3.519531 5.84375 -3.375 L 6.265625 -2.359375 C 6.296875 -2.222656 6.28125 -2.109375 6.21875 -2.015625 C 6.15625 -1.910156 6.054688 -1.859375 5.921875 -1.859375 L 3.421875 -1.859375 L 2.765625 -0.234375 C 2.703125 -0.0664062 2.59375 0.015625 2.4375 0.015625 L 1.1875 0.015625 C 1.09375 0.015625 1.03125 -0.00390625 1 -0.046875 C 0.96875 -0.0859375 0.945312 -0.125 0.9375 -0.15625 C 0.914062 -0.226562 0.921875 -0.320312 0.953125 -0.4375 L 4.140625 -8.34375 C 4.296875 -8.75 4.46875 -9.03125 4.65625 -9.1875 C 4.675781 -9.195312 4.703125 -9.210938 4.734375 -9.234375 C 4.765625 -9.265625 4.789062 -9.285156 4.8125 -9.296875 C 5.039062 -9.453125 5.304688 -9.53125 5.609375 -9.53125 C 5.921875 -9.53125 6.203125 -9.4375 6.453125 -9.25 C 6.703125 -9.0625 6.875 -8.816406 6.96875 -8.515625 C 6.976562 -8.492188 6.988281 -8.46875 7 -8.4375 C 7.019531 -8.40625 7.03125 -8.375 7.03125 -8.34375 Z M 7.03125 -8.34375 "/>
      </g>
    </g>
  </g>
  <g fill="#ffffff" fill-opacity="1" transform="matrix(1, 0, 0, 1, -12.034490585327148, 23.7849769592285)">
    <g transform="translate(127.978686, 215.864168)">
      <g>
        <path d="M 8.8125 -9.40625 C 8.863281 -9.40625 8.925781 -9.382812 9 -9.34375 C 9.082031 -9.300781 9.125 -9.191406 9.125 -9.015625 L 9.125 -3.578125 C 9.125 -3.253906 9.113281 -2.953125 9.09375 -2.671875 C 9.070312 -2.398438 9.035156 -2.15625 8.984375 -1.9375 C 8.867188 -1.46875 8.703125 -1.097656 8.484375 -0.828125 C 8.265625 -0.535156 7.96875 -0.320312 7.59375 -0.1875 C 7.25 -0.0625 6.820312 0 6.3125 0 L 3.734375 0 C 3.210938 0 2.78125 -0.0625 2.4375 -0.1875 C 2.269531 -0.25 2.109375 -0.332031 1.953125 -0.4375 C 1.796875 -0.550781 1.664062 -0.679688 1.5625 -0.828125 C 1.320312 -1.109375 1.15625 -1.476562 1.0625 -1.9375 C 1.007812 -2.15625 0.96875 -2.398438 0.9375 -2.671875 C 0.914062 -2.953125 0.90625 -3.253906 0.90625 -3.578125 L 0.90625 -9.015625 C 0.90625 -9.191406 0.945312 -9.300781 1.03125 -9.34375 C 1.125 -9.382812 1.195312 -9.40625 1.25 -9.40625 L 2.28125 -9.40625 C 2.332031 -9.40625 2.398438 -9.382812 2.484375 -9.34375 C 2.566406 -9.300781 2.609375 -9.191406 2.609375 -9.015625 L 2.609375 -3.390625 C 2.609375 -3.222656 2.613281 -3.066406 2.625 -2.921875 C 2.632812 -2.773438 2.644531 -2.644531 2.65625 -2.53125 C 2.707031 -2.332031 2.773438 -2.160156 2.859375 -2.015625 C 2.953125 -1.898438 3.066406 -1.816406 3.203125 -1.765625 C 3.273438 -1.742188 3.359375 -1.722656 3.453125 -1.703125 C 3.554688 -1.691406 3.671875 -1.6875 3.796875 -1.6875 L 6.265625 -1.6875 C 6.378906 -1.6875 6.484375 -1.691406 6.578125 -1.703125 C 6.679688 -1.722656 6.773438 -1.742188 6.859375 -1.765625 C 6.992188 -1.816406 7.109375 -1.898438 7.203125 -2.015625 C 7.234375 -2.078125 7.265625 -2.148438 7.296875 -2.234375 C 7.335938 -2.328125 7.363281 -2.425781 7.375 -2.53125 C 7.394531 -2.644531 7.410156 -2.773438 7.421875 -2.921875 C 7.429688 -3.066406 7.4375 -3.222656 7.4375 -3.390625 L 7.4375 -9.015625 C 7.4375 -9.191406 7.472656 -9.300781 7.546875 -9.34375 C 7.628906 -9.382812 7.695312 -9.40625 7.75 -9.40625 Z M 8.8125 -9.40625 "/>
      </g>
    </g>
  </g>
  <g fill="#ffffff" fill-opacity="1" transform="matrix(1, 0, 0, 1, -12.034490585327148, 23.7849769592285)">
    <g transform="translate(138.581828, 215.864168)">
      <g>
        <path d="M 8.8125 -9.40625 C 8.863281 -9.40625 8.929688 -9.382812 9.015625 -9.34375 C 9.097656 -9.300781 9.140625 -9.191406 9.140625 -9.015625 L 9.140625 -8.125 C 9.140625 -7.9375 9.097656 -7.820312 9.015625 -7.78125 C 8.929688 -7.738281 8.863281 -7.71875 8.8125 -7.71875 L 5.875 -7.71875 L 5.875 -0.390625 C 5.875 -0.210938 5.832031 -0.101562 5.75 -0.0625 C 5.664062 -0.0195312 5.597656 0 5.546875 0 L 4.5 0 C 4.457031 0 4.394531 -0.0195312 4.3125 -0.0625 C 4.226562 -0.101562 4.1875 -0.210938 4.1875 -0.390625 L 4.1875 -7.71875 L 1.25 -7.71875 C 1.195312 -7.71875 1.125 -7.738281 1.03125 -7.78125 C 0.945312 -7.820312 0.90625 -7.9375 0.90625 -8.125 L 0.90625 -9.015625 C 0.90625 -9.191406 0.945312 -9.300781 1.03125 -9.34375 C 1.125 -9.382812 1.195312 -9.40625 1.25 -9.40625 Z M 8.8125 -9.40625 "/>
      </g>
    </g>
  </g>
  <g fill="#ffffff" fill-opacity="1" transform="matrix(1, 0, 0, 1, -12.034490585327148, 23.7849769592285)">
    <g transform="translate(149.196385, 215.864168)">
      <g>
        <path d="M 8.6875 -8.578125 C 8.90625 -8.304688 9.070312 -7.929688 9.1875 -7.453125 C 9.226562 -7.234375 9.257812 -6.988281 9.28125 -6.71875 C 9.3125 -6.445312 9.328125 -6.15625 9.328125 -5.84375 L 9.328125 -3.578125 C 9.328125 -3.253906 9.3125 -2.953125 9.28125 -2.671875 C 9.257812 -2.398438 9.226562 -2.15625 9.1875 -1.9375 C 9.070312 -1.476562 8.90625 -1.101562 8.6875 -0.8125 C 8.457031 -0.507812 8.160156 -0.300781 7.796875 -0.1875 C 7.429688 -0.0507812 7.003906 0.015625 6.515625 0.015625 L 3.71875 0.015625 C 3.21875 0.015625 2.789062 -0.0507812 2.4375 -0.1875 C 2.082031 -0.300781 1.785156 -0.515625 1.546875 -0.828125 C 1.316406 -1.117188 1.15625 -1.488281 1.0625 -1.9375 C 1.007812 -2.15625 0.96875 -2.398438 0.9375 -2.671875 C 0.914062 -2.953125 0.90625 -3.253906 0.90625 -3.578125 L 0.90625 -5.84375 C 0.90625 -6.488281 0.957031 -7.023438 1.0625 -7.453125 C 1.15625 -7.898438 1.316406 -8.273438 1.546875 -8.578125 C 1.785156 -8.867188 2.082031 -9.082031 2.4375 -9.21875 C 2.8125 -9.34375 3.238281 -9.40625 3.71875 -9.40625 L 6.515625 -9.40625 C 7.003906 -9.40625 7.429688 -9.34375 7.796875 -9.21875 C 8.160156 -9.082031 8.457031 -8.867188 8.6875 -8.578125 Z M 7.625 -6.03125 C 7.625 -6.195312 7.617188 -6.347656 7.609375 -6.484375 C 7.609375 -6.628906 7.597656 -6.757812 7.578125 -6.875 C 7.546875 -7.09375 7.476562 -7.265625 7.375 -7.390625 C 7.300781 -7.492188 7.1875 -7.578125 7.03125 -7.640625 C 6.957031 -7.660156 6.875 -7.675781 6.78125 -7.6875 C 6.6875 -7.707031 6.578125 -7.71875 6.453125 -7.71875 L 3.78125 -7.71875 C 3.65625 -7.71875 3.546875 -7.707031 3.453125 -7.6875 C 3.359375 -7.675781 3.273438 -7.660156 3.203125 -7.640625 C 3.046875 -7.578125 2.929688 -7.492188 2.859375 -7.390625 C 2.804688 -7.328125 2.765625 -7.25 2.734375 -7.15625 C 2.710938 -7.070312 2.6875 -6.976562 2.65625 -6.875 C 2.644531 -6.757812 2.632812 -6.628906 2.625 -6.484375 C 2.613281 -6.347656 2.609375 -6.195312 2.609375 -6.03125 L 2.609375 -3.375 C 2.609375 -3.207031 2.613281 -3.050781 2.625 -2.90625 C 2.632812 -2.769531 2.644531 -2.644531 2.65625 -2.53125 C 2.6875 -2.425781 2.710938 -2.328125 2.734375 -2.234375 C 2.765625 -2.148438 2.804688 -2.078125 2.859375 -2.015625 C 2.929688 -1.898438 3.046875 -1.816406 3.203125 -1.765625 C 3.335938 -1.710938 3.53125 -1.6875 3.78125 -1.6875 L 6.453125 -1.6875 C 6.703125 -1.6875 6.894531 -1.710938 7.03125 -1.765625 C 7.1875 -1.816406 7.300781 -1.898438 7.375 -2.015625 C 7.46875 -2.128906 7.535156 -2.300781 7.578125 -2.53125 C 7.597656 -2.644531 7.609375 -2.769531 7.609375 -2.90625 C 7.617188 -3.050781 7.625 -3.207031 7.625 -3.375 Z M 7.625 -6.03125 "/>
      </g>
    </g>
  </g>
  <g fill="#ffffff" fill-opacity="1" transform="matrix(1, 0, 0, 1, -12.034490585327148, 23.7849769592285)">
    <g transform="translate(160.00497, 215.864168)">
      <g>
        <path d="M 10.453125 -9.40625 C 10.828125 -9.40625 11.085938 -9.285156 11.234375 -9.046875 C 11.347656 -8.828125 11.40625 -8.457031 11.40625 -7.9375 L 11.40625 -0.390625 C 11.40625 -0.210938 11.363281 -0.0976562 11.28125 -0.046875 C 11.195312 -0.00390625 11.128906 0.015625 11.078125 0.015625 L 10.09375 0.015625 C 10.050781 0.015625 9.988281 -0.00390625 9.90625 -0.046875 C 9.820312 -0.0976562 9.78125 -0.210938 9.78125 -0.390625 L 9.78125 -7.25 C 9.78125 -7.257812 9.78125 -7.265625 9.78125 -7.265625 C 9.78125 -7.273438 9.78125 -7.28125 9.78125 -7.28125 L 9.71875 -7.28125 C 9.707031 -7.28125 9.703125 -7.269531 9.703125 -7.25 L 7.734375 -2.40625 C 7.660156 -2.175781 7.582031 -1.972656 7.5 -1.796875 C 7.457031 -1.710938 7.410156 -1.632812 7.359375 -1.5625 C 7.304688 -1.5 7.257812 -1.4375 7.21875 -1.375 C 7.101562 -1.25 6.984375 -1.164062 6.859375 -1.125 C 6.734375 -1.070312 6.578125 -1.046875 6.390625 -1.046875 L 5.921875 -1.046875 C 5.753906 -1.046875 5.601562 -1.070312 5.46875 -1.125 C 5.40625 -1.144531 5.34375 -1.175781 5.28125 -1.21875 C 5.226562 -1.269531 5.171875 -1.320312 5.109375 -1.375 C 5.003906 -1.488281 4.910156 -1.628906 4.828125 -1.796875 C 4.753906 -1.972656 4.675781 -2.175781 4.59375 -2.40625 L 2.640625 -7.234375 C 2.628906 -7.265625 2.617188 -7.28125 2.609375 -7.28125 L 2.546875 -7.28125 C 2.546875 -7.28125 2.546875 -7.273438 2.546875 -7.265625 C 2.546875 -7.265625 2.546875 -7.257812 2.546875 -7.25 L 2.546875 -0.390625 C 2.546875 -0.210938 2.503906 -0.0976562 2.421875 -0.046875 C 2.347656 -0.00390625 2.285156 0.015625 2.234375 0.015625 L 1.25 0.015625 C 1.195312 0.015625 1.125 -0.00390625 1.03125 -0.046875 C 0.945312 -0.0976562 0.90625 -0.210938 0.90625 -0.390625 L 0.90625 -7.9375 C 0.90625 -8.457031 0.96875 -8.828125 1.09375 -9.046875 C 1.226562 -9.285156 1.492188 -9.40625 1.890625 -9.40625 L 2.9375 -9.40625 C 3.101562 -9.40625 3.234375 -9.390625 3.328125 -9.359375 C 3.460938 -9.328125 3.570312 -9.269531 3.65625 -9.1875 C 3.695312 -9.144531 3.738281 -9.097656 3.78125 -9.046875 C 3.820312 -8.992188 3.859375 -8.929688 3.890625 -8.859375 C 3.910156 -8.796875 3.9375 -8.71875 3.96875 -8.625 C 4.007812 -8.539062 4.046875 -8.445312 4.078125 -8.34375 L 6.09375 -3.296875 C 6.09375 -3.265625 6.097656 -3.25 6.109375 -3.25 C 6.117188 -3.25 6.125 -3.25 6.125 -3.25 L 6.234375 -3.25 C 6.253906 -3.25 6.265625 -3.265625 6.265625 -3.296875 L 8.296875 -8.34375 C 8.328125 -8.445312 8.359375 -8.539062 8.390625 -8.625 C 8.421875 -8.71875 8.453125 -8.796875 8.484375 -8.859375 C 8.523438 -8.929688 8.5625 -8.992188 8.59375 -9.046875 C 8.632812 -9.097656 8.675781 -9.144531 8.71875 -9.1875 C 8.8125 -9.269531 8.910156 -9.328125 9.015625 -9.359375 C 9.117188 -9.390625 9.253906 -9.40625 9.421875 -9.40625 Z M 10.453125 -9.40625 "/>
      </g>
    </g>
  </g>
  <g fill="#ffffff" fill-opacity="1" transform="matrix(1, 0, 0, 1, -12.034490585327148, 23.7849769592285)">
    <g transform="translate(172.89081, 215.864168)">
      <g>
        <path d="M 7.03125 -8.34375 L 10.25 -0.4375 C 10.289062 -0.332031 10.300781 -0.238281 10.28125 -0.15625 C 10.269531 -0.125 10.25 -0.0859375 10.21875 -0.046875 C 10.1875 -0.00390625 10.125 0.015625 10.03125 0.015625 L 8.8125 0.015625 C 8.644531 0.015625 8.53125 -0.0664062 8.46875 -0.234375 L 5.640625 -7.3125 C 5.628906 -7.320312 5.625 -7.328125 5.625 -7.328125 L 5.578125 -7.328125 C 5.578125 -7.328125 5.570312 -7.316406 5.5625 -7.296875 L 4.09375 -3.59375 L 5.515625 -3.59375 C 5.671875 -3.59375 5.78125 -3.519531 5.84375 -3.375 L 6.265625 -2.359375 C 6.296875 -2.222656 6.28125 -2.109375 6.21875 -2.015625 C 6.15625 -1.910156 6.054688 -1.859375 5.921875 -1.859375 L 3.421875 -1.859375 L 2.765625 -0.234375 C 2.703125 -0.0664062 2.59375 0.015625 2.4375 0.015625 L 1.1875 0.015625 C 1.09375 0.015625 1.03125 -0.00390625 1 -0.046875 C 0.96875 -0.0859375 0.945312 -0.125 0.9375 -0.15625 C 0.914062 -0.226562 0.921875 -0.320312 0.953125 -0.4375 L 4.140625 -8.34375 C 4.296875 -8.75 4.46875 -9.03125 4.65625 -9.1875 C 4.675781 -9.195312 4.703125 -9.210938 4.734375 -9.234375 C 4.765625 -9.265625 4.789062 -9.285156 4.8125 -9.296875 C 5.039062 -9.453125 5.304688 -9.53125 5.609375 -9.53125 C 5.921875 -9.53125 6.203125 -9.4375 6.453125 -9.25 C 6.703125 -9.0625 6.875 -8.816406 6.96875 -8.515625 C 6.976562 -8.492188 6.988281 -8.46875 7 -8.4375 C 7.019531 -8.40625 7.03125 -8.375 7.03125 -8.34375 Z M 7.03125 -8.34375 "/>
      </g>
    </g>
  </g>
  <g fill="#ffffff" fill-opacity="1" transform="matrix(1, 0, 0, 1, -12.034490585327148, 23.7849769592285)">
    <g transform="translate(184.66954, 215.864168)">
      <g>
        <path d="M 4.609375 -7.359375 C 3.734375 -7.359375 3.039062 -7.066406 2.53125 -6.484375 C 2.03125 -5.898438 1.78125 -5.097656 1.78125 -4.078125 C 1.78125 -3.066406 2.015625 -2.265625 2.484375 -1.671875 C 2.953125 -1.078125 3.65625 -0.78125 4.59375 -0.78125 C 4.9375 -0.78125 5.269531 -0.8125 5.59375 -0.875 C 5.914062 -0.9375 6.234375 -1.015625 6.546875 -1.109375 L 6.546875 -0.21875 C 6.242188 -0.101562 5.925781 -0.0195312 5.59375 0.03125 C 5.269531 0.0820312 4.882812 0.109375 4.4375 0.109375 C 3.613281 0.109375 2.921875 -0.0546875 2.359375 -0.390625 C 1.804688 -0.734375 1.390625 -1.222656 1.109375 -1.859375 C 0.835938 -2.492188 0.703125 -3.238281 0.703125 -4.09375 C 0.703125 -4.914062 0.847656 -5.640625 1.140625 -6.265625 C 1.441406 -6.890625 1.882812 -7.378906 2.46875 -7.734375 C 3.0625 -8.085938 3.773438 -8.265625 4.609375 -8.265625 C 5.472656 -8.265625 6.222656 -8.109375 6.859375 -7.796875 L 6.453125 -6.921875 C 6.203125 -7.035156 5.921875 -7.132812 5.609375 -7.21875 C 5.304688 -7.3125 4.972656 -7.359375 4.609375 -7.359375 Z M 5.40625 1.59375 C 5.40625 1.957031 5.265625 2.238281 4.984375 2.4375 C 4.703125 2.632812 4.28125 2.734375 3.71875 2.734375 C 3.46875 2.734375 3.273438 2.71875 3.140625 2.6875 L 3.140625 2.0625 C 3.210938 2.070312 3.304688 2.082031 3.421875 2.09375 C 3.535156 2.101562 3.644531 2.109375 3.75 2.109375 C 4.019531 2.109375 4.226562 2.070312 4.375 2 C 4.519531 1.925781 4.59375 1.796875 4.59375 1.609375 C 4.59375 1.410156 4.488281 1.265625 4.28125 1.171875 C 4.082031 1.085938 3.84375 1.023438 3.5625 0.984375 L 4.046875 0 L 4.703125 0 L 4.40625 0.609375 C 4.6875 0.671875 4.921875 0.773438 5.109375 0.921875 C 5.304688 1.078125 5.40625 1.300781 5.40625 1.59375 Z M 5.40625 1.59375 "/>
      </g>
    </g>
  </g>
  <g fill="#ffffff" fill-opacity="1" transform="matrix(1, 0, 0, 1, -12.034490585327148, 23.7849769592285)">
    <g transform="translate(191.882873, 215.864168)">
      <g>
        <path d="M 7.046875 -8.359375 L 10.25 -0.453125 C 10.289062 -0.328125 10.300781 -0.226562 10.28125 -0.15625 C 10.269531 -0.132812 10.25 -0.101562 10.21875 -0.0625 C 10.1875 -0.0195312 10.128906 0 10.046875 0 L 8.8125 0 C 8.644531 0 8.535156 -0.078125 8.484375 -0.234375 L 5.640625 -7.328125 C 5.640625 -7.328125 5.632812 -7.328125 5.625 -7.328125 C 5.625 -7.335938 5.625 -7.34375 5.625 -7.34375 L 5.578125 -7.34375 C 5.578125 -7.34375 5.578125 -7.335938 5.578125 -7.328125 C 5.578125 -7.328125 5.578125 -7.320312 5.578125 -7.3125 L 4.09375 -3.609375 L 5.515625 -3.609375 C 5.671875 -3.609375 5.78125 -3.53125 5.84375 -3.375 L 6.265625 -2.359375 C 6.304688 -2.242188 6.289062 -2.128906 6.21875 -2.015625 C 6.144531 -1.921875 6.046875 -1.875 5.921875 -1.875 L 3.421875 -1.875 L 2.765625 -0.234375 C 2.710938 -0.078125 2.601562 0 2.4375 0 L 1.1875 0 C 1.09375 0 1.03125 -0.015625 1 -0.046875 C 0.96875 -0.0859375 0.945312 -0.125 0.9375 -0.15625 C 0.914062 -0.226562 0.921875 -0.328125 0.953125 -0.453125 L 4.140625 -8.359375 C 4.316406 -8.773438 4.488281 -9.050781 4.65625 -9.1875 C 4.675781 -9.207031 4.703125 -9.226562 4.734375 -9.25 C 4.765625 -9.269531 4.789062 -9.289062 4.8125 -9.3125 C 5.039062 -9.46875 5.304688 -9.546875 5.609375 -9.546875 C 5.921875 -9.546875 6.203125 -9.453125 6.453125 -9.265625 C 6.710938 -9.078125 6.882812 -8.832031 6.96875 -8.53125 C 6.976562 -8.507812 6.988281 -8.484375 7 -8.453125 C 7.019531 -8.421875 7.035156 -8.390625 7.046875 -8.359375 Z M 8.03125 -12.3125 C 8.070312 -12.269531 8.09375 -12.195312 8.09375 -12.09375 L 8.09375 -11.4375 C 8.09375 -11.320312 8.078125 -11.226562 8.046875 -11.15625 C 8.023438 -11.125 8.003906 -11.09375 7.984375 -11.0625 C 7.960938 -11.03125 7.9375 -11 7.90625 -10.96875 C 7.832031 -10.914062 7.753906 -10.863281 7.671875 -10.8125 C 7.585938 -10.769531 7.492188 -10.726562 7.390625 -10.6875 C 7.171875 -10.601562 6.957031 -10.5625 6.75 -10.5625 C 6.4375 -10.5625 6.160156 -10.617188 5.921875 -10.734375 C 5.796875 -10.785156 5.679688 -10.84375 5.578125 -10.90625 C 5.472656 -10.96875 5.375 -11.03125 5.28125 -11.09375 C 5.207031 -11.132812 5.132812 -11.171875 5.0625 -11.203125 C 4.988281 -11.242188 4.90625 -11.28125 4.8125 -11.3125 C 4.65625 -11.382812 4.476562 -11.421875 4.28125 -11.421875 C 4.144531 -11.421875 4.023438 -11.394531 3.921875 -11.34375 C 3.796875 -11.289062 3.664062 -11.191406 3.53125 -11.046875 C 3.488281 -11.015625 3.453125 -10.984375 3.421875 -10.953125 C 3.398438 -10.921875 3.378906 -10.898438 3.359375 -10.890625 C 3.304688 -10.835938 3.234375 -10.8125 3.140625 -10.8125 C 2.953125 -10.8125 2.859375 -10.914062 2.859375 -11.125 L 2.859375 -11.78125 C 2.859375 -11.894531 2.875 -11.984375 2.90625 -12.046875 C 2.914062 -12.078125 2.929688 -12.109375 2.953125 -12.140625 C 2.984375 -12.171875 3.007812 -12.203125 3.03125 -12.234375 C 3.0625 -12.253906 3.097656 -12.28125 3.140625 -12.3125 C 3.191406 -12.351562 3.25 -12.394531 3.3125 -12.4375 C 3.382812 -12.476562 3.460938 -12.515625 3.546875 -12.546875 C 3.742188 -12.617188 3.957031 -12.65625 4.1875 -12.65625 C 4.519531 -12.65625 4.800781 -12.597656 5.03125 -12.484375 C 5.09375 -12.453125 5.148438 -12.421875 5.203125 -12.390625 C 5.253906 -12.367188 5.3125 -12.34375 5.375 -12.3125 C 5.425781 -12.28125 5.472656 -12.25 5.515625 -12.21875 C 5.566406 -12.1875 5.617188 -12.15625 5.671875 -12.125 C 5.742188 -12.070312 5.816406 -12.03125 5.890625 -12 C 5.972656 -11.96875 6.054688 -11.929688 6.140625 -11.890625 C 6.273438 -11.828125 6.453125 -11.796875 6.671875 -11.796875 C 6.796875 -11.796875 6.914062 -11.820312 7.03125 -11.875 C 7.082031 -11.894531 7.140625 -11.925781 7.203125 -11.96875 C 7.273438 -12.019531 7.34375 -12.085938 7.40625 -12.171875 C 7.445312 -12.203125 7.476562 -12.226562 7.5 -12.25 C 7.53125 -12.28125 7.554688 -12.300781 7.578125 -12.3125 C 7.578125 -12.320312 7.582031 -12.328125 7.59375 -12.328125 C 7.664062 -12.378906 7.738281 -12.40625 7.8125 -12.40625 C 7.914062 -12.40625 7.988281 -12.375 8.03125 -12.3125 Z M 8.03125 -12.3125 "/>
      </g>
    </g>
  </g>
  <g fill="#ffffff" fill-opacity="1" transform="matrix(1, 0, 0, 1, -12.034490585327148, 23.7849769592285)">
    <g transform="translate(203.661602, 215.864168)">
      <g>
        <path d="M 8.6875 -8.578125 C 8.90625 -8.304688 9.070312 -7.929688 9.1875 -7.453125 C 9.226562 -7.234375 9.257812 -6.988281 9.28125 -6.71875 C 9.3125 -6.445312 9.328125 -6.15625 9.328125 -5.84375 L 9.328125 -3.578125 C 9.328125 -3.253906 9.3125 -2.953125 9.28125 -2.671875 C 9.257812 -2.398438 9.226562 -2.15625 9.1875 -1.9375 C 9.070312 -1.476562 8.90625 -1.101562 8.6875 -0.8125 C 8.457031 -0.507812 8.160156 -0.300781 7.796875 -0.1875 C 7.429688 -0.0507812 7.003906 0.015625 6.515625 0.015625 L 3.71875 0.015625 C 3.21875 0.015625 2.789062 -0.0507812 2.4375 -0.1875 C 2.082031 -0.300781 1.785156 -0.515625 1.546875 -0.828125 C 1.316406 -1.117188 1.15625 -1.488281 1.0625 -1.9375 C 1.007812 -2.15625 0.96875 -2.398438 0.9375 -2.671875 C 0.914062 -2.953125 0.90625 -3.253906 0.90625 -3.578125 L 0.90625 -5.84375 C 0.90625 -6.488281 0.957031 -7.023438 1.0625 -7.453125 C 1.15625 -7.898438 1.316406 -8.273438 1.546875 -8.578125 C 1.785156 -8.867188 2.082031 -9.082031 2.4375 -9.21875 C 2.8125 -9.34375 3.238281 -9.40625 3.71875 -9.40625 L 6.515625 -9.40625 C 7.003906 -9.40625 7.429688 -9.34375 7.796875 -9.21875 C 8.160156 -9.082031 8.457031 -8.867188 8.6875 -8.578125 Z M 7.625 -6.03125 C 7.625 -6.195312 7.617188 -6.347656 7.609375 -6.484375 C 7.609375 -6.628906 7.597656 -6.757812 7.578125 -6.875 C 7.546875 -7.09375 7.476562 -7.265625 7.375 -7.390625 C 7.300781 -7.492188 7.1875 -7.578125 7.03125 -7.640625 C 6.957031 -7.660156 6.875 -7.675781 6.78125 -7.6875 C 6.6875 -7.707031 6.578125 -7.71875 6.453125 -7.71875 L 3.78125 -7.71875 C 3.65625 -7.71875 3.546875 -7.707031 3.453125 -7.6875 C 3.359375 -7.675781 3.273438 -7.660156 3.203125 -7.640625 C 3.046875 -7.578125 2.929688 -7.492188 2.859375 -7.390625 C 2.804688 -7.328125 2.765625 -7.25 2.734375 -7.15625 C 2.710938 -7.070312 2.6875 -6.976562 2.65625 -6.875 C 2.644531 -6.757812 2.632812 -6.628906 2.625 -6.484375 C 2.613281 -6.347656 2.609375 -6.195312 2.609375 -6.03125 L 2.609375 -3.375 C 2.609375 -3.207031 2.613281 -3.050781 2.625 -2.90625 C 2.632812 -2.769531 2.644531 -2.644531 2.65625 -2.53125 C 2.6875 -2.425781 2.710938 -2.328125 2.734375 -2.234375 C 2.765625 -2.148438 2.804688 -2.078125 2.859375 -2.015625 C 2.929688 -1.898438 3.046875 -1.816406 3.203125 -1.765625 C 3.335938 -1.710938 3.53125 -1.6875 3.78125 -1.6875 L 6.453125 -1.6875 C 6.703125 -1.6875 6.894531 -1.710938 7.03125 -1.765625 C 7.1875 -1.816406 7.300781 -1.898438 7.375 -2.015625 C 7.46875 -2.128906 7.535156 -2.300781 7.578125 -2.53125 C 7.597656 -2.644531 7.609375 -2.769531 7.609375 -2.90625 C 7.617188 -3.050781 7.625 -3.207031 7.625 -3.375 Z M 7.625 -6.03125 "/>
      </g>
    </g>
  </g>
  <g fill="#ffffff" fill-opacity="1" transform="matrix(1, 0, 0, 1, -12.034490585327148, 23.7849769592285)">
    <g transform="translate(220.907403, 215.864168)">
      <g>
        <path d="M 2.28125 -9.40625 C 2.332031 -9.40625 2.398438 -9.382812 2.484375 -9.34375 C 2.566406 -9.300781 2.609375 -9.191406 2.609375 -9.015625 L 2.609375 -0.390625 C 2.609375 -0.210938 2.566406 -0.0976562 2.484375 -0.046875 C 2.398438 -0.00390625 2.332031 0.015625 2.28125 0.015625 L 1.234375 0.015625 C 1.191406 0.015625 1.125 -0.00390625 1.03125 -0.046875 C 0.945312 -0.0976562 0.90625 -0.210938 0.90625 -0.390625 L 0.90625 -9.015625 C 0.90625 -9.191406 0.945312 -9.300781 1.03125 -9.34375 C 1.125 -9.382812 1.191406 -9.40625 1.234375 -9.40625 Z M 2.28125 -9.40625 "/>
      </g>
    </g>
  </g>
  <g fill="#ffffff" fill-opacity="1" transform="matrix(1, 0, 0, 1, -12.034490585327148, 23.7849769592285)">
    <g transform="translate(224.993438, 215.864168)">
      <g>
        <path d="M 9 -9.40625 C 9.039062 -9.40625 9.101562 -9.382812 9.1875 -9.34375 C 9.269531 -9.300781 9.3125 -9.191406 9.3125 -9.015625 L 9.3125 -1.46875 C 9.3125 -0.90625 9.234375 -0.519531 9.078125 -0.3125 C 8.921875 -0.09375 8.675781 0.015625 8.34375 0.015625 L 7.5 0.015625 C 7.351562 0.015625 7.222656 0.00390625 7.109375 -0.015625 C 7.054688 -0.0351562 7.003906 -0.0546875 6.953125 -0.078125 C 6.898438 -0.0976562 6.851562 -0.125 6.8125 -0.15625 C 6.71875 -0.207031 6.632812 -0.289062 6.5625 -0.40625 C 6.519531 -0.457031 6.472656 -0.515625 6.421875 -0.578125 C 6.378906 -0.648438 6.335938 -0.734375 6.296875 -0.828125 L 2.671875 -7.234375 C 2.660156 -7.253906 2.648438 -7.265625 2.640625 -7.265625 C 2.640625 -7.273438 2.640625 -7.28125 2.640625 -7.28125 L 2.578125 -7.28125 C 2.578125 -7.28125 2.578125 -7.273438 2.578125 -7.265625 C 2.578125 -7.265625 2.578125 -7.257812 2.578125 -7.25 L 2.578125 -0.390625 C 2.578125 -0.210938 2.535156 -0.0976562 2.453125 -0.046875 C 2.378906 -0.00390625 2.316406 0.015625 2.265625 0.015625 L 1.25 0.015625 C 1.195312 0.015625 1.125 -0.00390625 1.03125 -0.046875 C 0.945312 -0.0976562 0.90625 -0.210938 0.90625 -0.390625 L 0.90625 -7.9375 C 0.90625 -8.488281 0.988281 -8.875 1.15625 -9.09375 C 1.320312 -9.300781 1.566406 -9.40625 1.890625 -9.40625 L 2.75 -9.40625 C 2.820312 -9.40625 2.894531 -9.40625 2.96875 -9.40625 C 3.039062 -9.40625 3.101562 -9.398438 3.15625 -9.390625 C 3.269531 -9.367188 3.375 -9.320312 3.46875 -9.25 C 3.550781 -9.195312 3.632812 -9.109375 3.71875 -8.984375 C 3.75 -8.929688 3.785156 -8.867188 3.828125 -8.796875 C 3.867188 -8.734375 3.914062 -8.660156 3.96875 -8.578125 L 7.578125 -2.15625 C 7.578125 -2.132812 7.585938 -2.125 7.609375 -2.125 L 7.671875 -2.125 C 7.671875 -2.132812 7.671875 -2.140625 7.671875 -2.140625 L 7.671875 -9.015625 C 7.671875 -9.191406 7.707031 -9.300781 7.78125 -9.34375 C 7.863281 -9.382812 7.929688 -9.40625 7.984375 -9.40625 Z M 9 -9.40625 "/>
      </g>
    </g>
  </g>
  <g fill="#ffffff" fill-opacity="1" transform="matrix(1, 0, 0, 1, -12.034490585327148, 23.7849769592285)">
    <g transform="translate(235.790608, 215.864168)">
      <g>
        <path d="M 8.71875 -7.28125 C 8.832031 -6.800781 8.890625 -6.238281 8.890625 -5.59375 L 8.890625 -3.796875 C 8.890625 -3.148438 8.832031 -2.585938 8.71875 -2.109375 C 8.664062 -1.878906 8.585938 -1.660156 8.484375 -1.453125 C 8.390625 -1.253906 8.285156 -1.078125 8.171875 -0.921875 C 7.921875 -0.609375 7.597656 -0.375 7.203125 -0.21875 C 6.804688 -0.0625 6.34375 0.015625 5.8125 0.015625 L 1.90625 0.015625 C 1.726562 0.015625 1.5625 -0.0234375 1.40625 -0.109375 C 1.25 -0.203125 1.128906 -0.328125 1.046875 -0.484375 C 0.984375 -0.585938 0.9375 -0.703125 0.90625 -0.828125 L 0.921875 -8.640625 C 0.941406 -8.679688 0.957031 -8.726562 0.96875 -8.78125 C 0.988281 -8.832031 1.015625 -8.878906 1.046875 -8.921875 C 1.222656 -9.210938 1.484375 -9.375 1.828125 -9.40625 L 5.8125 -9.40625 C 6.34375 -9.40625 6.804688 -9.332031 7.203125 -9.1875 C 7.585938 -9.03125 7.910156 -8.796875 8.171875 -8.484375 C 8.285156 -8.328125 8.390625 -8.148438 8.484375 -7.953125 C 8.585938 -7.753906 8.664062 -7.53125 8.71875 -7.28125 Z M 2.59375 -1.75 C 2.59375 -1.726562 2.59375 -1.710938 2.59375 -1.703125 C 2.601562 -1.691406 2.609375 -1.6875 2.609375 -1.6875 L 5.78125 -1.6875 C 5.90625 -1.6875 6.023438 -1.691406 6.140625 -1.703125 C 6.253906 -1.722656 6.359375 -1.75 6.453125 -1.78125 C 6.628906 -1.851562 6.769531 -1.957031 6.875 -2.09375 C 6.988281 -2.238281 7.066406 -2.4375 7.109375 -2.6875 C 7.140625 -2.8125 7.160156 -2.953125 7.171875 -3.109375 C 7.191406 -3.265625 7.203125 -3.4375 7.203125 -3.625 L 7.203125 -5.765625 C 7.203125 -5.953125 7.191406 -6.125 7.171875 -6.28125 C 7.160156 -6.445312 7.140625 -6.597656 7.109375 -6.734375 C 7.066406 -6.972656 6.988281 -7.164062 6.875 -7.3125 C 6.78125 -7.445312 6.640625 -7.550781 6.453125 -7.625 C 6.265625 -7.6875 6.039062 -7.71875 5.78125 -7.71875 L 2.609375 -7.71875 C 2.597656 -7.71875 2.59375 -7.695312 2.59375 -7.65625 Z M 2.59375 -1.75 "/>
      </g>
    </g>
  </g>
  <g fill="#ffffff" fill-opacity="1" transform="matrix(1, 0, 0, 1, -12.034490585327148, 23.7849769592285)">
    <g transform="translate(246.154063, 215.864168)">
      <g>
        <path d="M 8.8125 -9.40625 C 8.863281 -9.40625 8.925781 -9.382812 9 -9.34375 C 9.082031 -9.300781 9.125 -9.191406 9.125 -9.015625 L 9.125 -3.578125 C 9.125 -3.253906 9.113281 -2.953125 9.09375 -2.671875 C 9.070312 -2.398438 9.035156 -2.15625 8.984375 -1.9375 C 8.867188 -1.46875 8.703125 -1.097656 8.484375 -0.828125 C 8.265625 -0.535156 7.96875 -0.320312 7.59375 -0.1875 C 7.25 -0.0625 6.820312 0 6.3125 0 L 3.734375 0 C 3.210938 0 2.78125 -0.0625 2.4375 -0.1875 C 2.269531 -0.25 2.109375 -0.332031 1.953125 -0.4375 C 1.796875 -0.550781 1.664062 -0.679688 1.5625 -0.828125 C 1.320312 -1.109375 1.15625 -1.476562 1.0625 -1.9375 C 1.007812 -2.15625 0.96875 -2.398438 0.9375 -2.671875 C 0.914062 -2.953125 0.90625 -3.253906 0.90625 -3.578125 L 0.90625 -9.015625 C 0.90625 -9.191406 0.945312 -9.300781 1.03125 -9.34375 C 1.125 -9.382812 1.195312 -9.40625 1.25 -9.40625 L 2.28125 -9.40625 C 2.332031 -9.40625 2.398438 -9.382812 2.484375 -9.34375 C 2.566406 -9.300781 2.609375 -9.191406 2.609375 -9.015625 L 2.609375 -3.390625 C 2.609375 -3.222656 2.613281 -3.066406 2.625 -2.921875 C 2.632812 -2.773438 2.644531 -2.644531 2.65625 -2.53125 C 2.707031 -2.332031 2.773438 -2.160156 2.859375 -2.015625 C 2.953125 -1.898438 3.066406 -1.816406 3.203125 -1.765625 C 3.273438 -1.742188 3.359375 -1.722656 3.453125 -1.703125 C 3.554688 -1.691406 3.671875 -1.6875 3.796875 -1.6875 L 6.265625 -1.6875 C 6.378906 -1.6875 6.484375 -1.691406 6.578125 -1.703125 C 6.679688 -1.722656 6.773438 -1.742188 6.859375 -1.765625 C 6.992188 -1.816406 7.109375 -1.898438 7.203125 -2.015625 C 7.234375 -2.078125 7.265625 -2.148438 7.296875 -2.234375 C 7.335938 -2.328125 7.363281 -2.425781 7.375 -2.53125 C 7.394531 -2.644531 7.410156 -2.773438 7.421875 -2.921875 C 7.429688 -3.066406 7.4375 -3.222656 7.4375 -3.390625 L 7.4375 -9.015625 C 7.4375 -9.191406 7.472656 -9.300781 7.546875 -9.34375 C 7.628906 -9.382812 7.695312 -9.40625 7.75 -9.40625 Z M 8.8125 -9.40625 "/>
      </g>
    </g>
  </g>
  <g fill="#ffffff" fill-opacity="1" transform="matrix(1, 0, 0, 1, -12.034490585327148, 23.7849769592285)">
    <g transform="translate(256.757205, 215.864168)">
      <g>
        <path d="M 6.4375 -5.625 C 7.03125 -5.625 7.484375 -5.410156 7.796875 -4.984375 C 8.085938 -4.578125 8.234375 -4 8.234375 -3.25 L 8.234375 -2.25 C 8.234375 -1.59375 8.085938 -1.054688 7.796875 -0.640625 C 7.503906 -0.210938 7.039062 0 6.40625 0 L 1.25 0 C 1.195312 0 1.128906 -0.0195312 1.046875 -0.0625 C 0.960938 -0.101562 0.921875 -0.210938 0.921875 -0.390625 L 0.921875 -1.296875 C 0.921875 -1.472656 0.960938 -1.582031 1.046875 -1.625 C 1.128906 -1.664062 1.195312 -1.6875 1.25 -1.6875 L 6.140625 -1.6875 C 6.234375 -1.6875 6.300781 -1.703125 6.34375 -1.734375 C 6.382812 -1.773438 6.414062 -1.8125 6.4375 -1.84375 C 6.507812 -1.957031 6.546875 -2.113281 6.546875 -2.3125 L 6.546875 -3.296875 C 6.546875 -3.578125 6.5 -3.75 6.40625 -3.8125 C 6.3125 -3.882812 6.222656 -3.921875 6.140625 -3.921875 L 2.71875 -3.921875 C 2.476562 -3.921875 2.234375 -3.953125 1.984375 -4.015625 C 1.742188 -4.078125 1.535156 -4.226562 1.359375 -4.46875 C 1.054688 -4.882812 0.90625 -5.492188 0.90625 -6.296875 L 0.90625 -7.15625 C 0.90625 -7.832031 1.054688 -8.375 1.359375 -8.78125 C 1.648438 -9.195312 2.109375 -9.40625 2.734375 -9.40625 L 7.671875 -9.40625 C 7.710938 -9.40625 7.773438 -9.382812 7.859375 -9.34375 C 7.941406 -9.300781 7.984375 -9.191406 7.984375 -9.015625 L 7.984375 -8.109375 C 7.984375 -7.929688 7.941406 -7.820312 7.859375 -7.78125 C 7.773438 -7.738281 7.710938 -7.71875 7.671875 -7.71875 L 3.015625 -7.71875 C 2.910156 -7.71875 2.835938 -7.703125 2.796875 -7.671875 C 2.753906 -7.640625 2.722656 -7.609375 2.703125 -7.578125 C 2.640625 -7.453125 2.609375 -7.289062 2.609375 -7.09375 L 2.609375 -6.25 C 2.609375 -5.96875 2.648438 -5.789062 2.734375 -5.71875 C 2.828125 -5.65625 2.914062 -5.625 3 -5.625 Z M 6.4375 -5.625 "/>
      </g>
    </g>
  </g>
  <g fill="#ffffff" fill-opacity="1" transform="matrix(1, 0, 0, 1, -12.034490585327148, 23.7849769592285)">
    <g transform="translate(266.470101, 215.864168)">
      <g>
        <path d="M 8.8125 -9.40625 C 8.863281 -9.40625 8.929688 -9.382812 9.015625 -9.34375 C 9.097656 -9.300781 9.140625 -9.191406 9.140625 -9.015625 L 9.140625 -8.125 C 9.140625 -7.9375 9.097656 -7.820312 9.015625 -7.78125 C 8.929688 -7.738281 8.863281 -7.71875 8.8125 -7.71875 L 5.875 -7.71875 L 5.875 -0.390625 C 5.875 -0.210938 5.832031 -0.101562 5.75 -0.0625 C 5.664062 -0.0195312 5.597656 0 5.546875 0 L 4.5 0 C 4.457031 0 4.394531 -0.0195312 4.3125 -0.0625 C 4.226562 -0.101562 4.1875 -0.210938 4.1875 -0.390625 L 4.1875 -7.71875 L 1.25 -7.71875 C 1.195312 -7.71875 1.125 -7.738281 1.03125 -7.78125 C 0.945312 -7.820312 0.90625 -7.9375 0.90625 -8.125 L 0.90625 -9.015625 C 0.90625 -9.191406 0.945312 -9.300781 1.03125 -9.34375 C 1.125 -9.382812 1.195312 -9.40625 1.25 -9.40625 Z M 8.8125 -9.40625 "/>
      </g>
    </g>
  </g>
  <g fill="#ffffff" fill-opacity="1" transform="matrix(1, 0, 0, 1, -12.034490585327148, 23.7849769592285)">
    <g transform="translate(277.084666, 215.864168)">
      <g>
        <path d="M 8.703125 -6.6875 L 8.703125 -6.609375 C 8.703125 -6.617188 8.703125 -6.625 8.703125 -6.625 C 8.703125 -6.632812 8.703125 -6.640625 8.703125 -6.640625 C 8.703125 -6.648438 8.703125 -6.65625 8.703125 -6.65625 C 8.703125 -6.664062 8.703125 -6.675781 8.703125 -6.6875 Z M 8.921875 -0.484375 C 8.960938 -0.429688 8.976562 -0.34375 8.96875 -0.21875 C 8.945312 -0.0625 8.859375 0.015625 8.703125 0.015625 L 7.453125 0.015625 C 7.347656 0.015625 7.265625 -0.0078125 7.203125 -0.0625 C 7.179688 -0.0703125 7.160156 -0.09375 7.140625 -0.125 C 7.117188 -0.15625 7.097656 -0.1875 7.078125 -0.21875 L 5.015625 -3.890625 L 2.609375 -3.890625 L 2.609375 -0.390625 C 2.609375 -0.210938 2.566406 -0.0976562 2.484375 -0.046875 C 2.398438 -0.00390625 2.332031 0.015625 2.28125 0.015625 L 1.25 0.015625 C 1.195312 0.015625 1.125 -0.00390625 1.03125 -0.046875 C 0.945312 -0.0976562 0.90625 -0.210938 0.90625 -0.390625 L 0.90625 -5.1875 C 0.90625 -5.363281 0.945312 -5.472656 1.03125 -5.515625 C 1.125 -5.554688 1.195312 -5.578125 1.25 -5.578125 L 6.21875 -5.578125 C 6.5 -5.578125 6.695312 -5.660156 6.8125 -5.828125 C 6.9375 -5.992188 7 -6.265625 7 -6.640625 C 7 -7.023438 6.9375 -7.300781 6.8125 -7.46875 C 6.695312 -7.632812 6.5 -7.71875 6.21875 -7.71875 L 1.25 -7.71875 C 1.195312 -7.71875 1.125 -7.738281 1.03125 -7.78125 C 0.945312 -7.820312 0.90625 -7.929688 0.90625 -8.109375 L 0.90625 -9.015625 C 0.90625 -9.191406 0.945312 -9.300781 1.03125 -9.34375 C 1.125 -9.382812 1.195312 -9.40625 1.25 -9.40625 L 6.515625 -9.40625 C 7.296875 -9.40625 7.859375 -9.164062 8.203125 -8.6875 C 8.523438 -8.207031 8.691406 -7.523438 8.703125 -6.640625 C 8.691406 -5.765625 8.523438 -5.085938 8.203125 -4.609375 C 7.910156 -4.210938 7.484375 -3.984375 6.921875 -3.921875 Z M 8.921875 -0.484375 "/>
      </g>
    </g>
  </g>
  <g fill="#ffffff" fill-opacity="1" transform="matrix(1, 0, 0, 1, -12.034490585327148, 23.7849769592285)">
    <g transform="translate(287.539434, 215.864168)">
      <g>
        <path d="M 2.28125 -9.40625 C 2.332031 -9.40625 2.398438 -9.382812 2.484375 -9.34375 C 2.566406 -9.300781 2.609375 -9.191406 2.609375 -9.015625 L 2.609375 -0.390625 C 2.609375 -0.210938 2.566406 -0.0976562 2.484375 -0.046875 C 2.398438 -0.00390625 2.332031 0.015625 2.28125 0.015625 L 1.234375 0.015625 C 1.191406 0.015625 1.125 -0.00390625 1.03125 -0.046875 C 0.945312 -0.0976562 0.90625 -0.210938 0.90625 -0.390625 L 0.90625 -9.015625 C 0.90625 -9.191406 0.945312 -9.300781 1.03125 -9.34375 C 1.125 -9.382812 1.191406 -9.40625 1.234375 -9.40625 Z M 2.28125 -9.40625 "/>
      </g>
    </g>
  </g>
  <g fill="#ffffff" fill-opacity="1" transform="matrix(1, 0, 0, 1, -12.034490585327148, 23.7849769592285)">
    <g transform="translate(291.625469, 215.864168)">
      <g>
        <path d="M 7.03125 -8.34375 L 10.25 -0.4375 C 10.289062 -0.332031 10.300781 -0.238281 10.28125 -0.15625 C 10.269531 -0.125 10.25 -0.0859375 10.21875 -0.046875 C 10.1875 -0.00390625 10.125 0.015625 10.03125 0.015625 L 8.8125 0.015625 C 8.644531 0.015625 8.53125 -0.0664062 8.46875 -0.234375 L 5.640625 -7.3125 C 5.628906 -7.320312 5.625 -7.328125 5.625 -7.328125 L 5.578125 -7.328125 C 5.578125 -7.328125 5.570312 -7.316406 5.5625 -7.296875 L 4.09375 -3.59375 L 5.515625 -3.59375 C 5.671875 -3.59375 5.78125 -3.519531 5.84375 -3.375 L 6.265625 -2.359375 C 6.296875 -2.222656 6.28125 -2.109375 6.21875 -2.015625 C 6.15625 -1.910156 6.054688 -1.859375 5.921875 -1.859375 L 3.421875 -1.859375 L 2.765625 -0.234375 C 2.703125 -0.0664062 2.59375 0.015625 2.4375 0.015625 L 1.1875 0.015625 C 1.09375 0.015625 1.03125 -0.00390625 1 -0.046875 C 0.96875 -0.0859375 0.945312 -0.125 0.9375 -0.15625 C 0.914062 -0.226562 0.921875 -0.320312 0.953125 -0.4375 L 4.140625 -8.34375 C 4.296875 -8.75 4.46875 -9.03125 4.65625 -9.1875 C 4.675781 -9.195312 4.703125 -9.210938 4.734375 -9.234375 C 4.765625 -9.265625 4.789062 -9.285156 4.8125 -9.296875 C 5.039062 -9.453125 5.304688 -9.53125 5.609375 -9.53125 C 5.921875 -9.53125 6.203125 -9.4375 6.453125 -9.25 C 6.703125 -9.0625 6.875 -8.816406 6.96875 -8.515625 C 6.976562 -8.492188 6.988281 -8.46875 7 -8.4375 C 7.019531 -8.40625 7.03125 -8.375 7.03125 -8.34375 Z M 7.03125 -8.34375 "/>
      </g>
    </g>
  </g>
  <g fill="#ffffff" fill-opacity="1" transform="matrix(1, 0, 0, 1, -12.034490585327148, 23.7849769592285)">
    <g transform="translate(303.404199, 215.864168)">
      <g>
        <path d="M 7.5 -1.6875 C 7.550781 -1.6875 7.617188 -1.660156 7.703125 -1.609375 C 7.785156 -1.566406 7.828125 -1.460938 7.828125 -1.296875 L 7.828125 -0.390625 C 7.828125 -0.210938 7.785156 -0.0976562 7.703125 -0.046875 C 7.617188 -0.00390625 7.550781 0.015625 7.5 0.015625 L 3.734375 0.015625 C 3.234375 0.015625 2.804688 -0.0507812 2.453125 -0.1875 C 2.097656 -0.300781 1.800781 -0.515625 1.5625 -0.828125 C 1.34375 -1.097656 1.179688 -1.46875 1.078125 -1.9375 C 0.960938 -2.40625 0.90625 -2.953125 0.90625 -3.578125 L 0.90625 -9.015625 C 0.90625 -9.191406 0.945312 -9.300781 1.03125 -9.34375 C 1.125 -9.382812 1.195312 -9.40625 1.25 -9.40625 L 2.296875 -9.40625 C 2.335938 -9.40625 2.398438 -9.382812 2.484375 -9.34375 C 2.566406 -9.300781 2.609375 -9.191406 2.609375 -9.015625 L 2.609375 -3.375 C 2.609375 -3.207031 2.613281 -3.050781 2.625 -2.90625 C 2.632812 -2.769531 2.648438 -2.644531 2.671875 -2.53125 C 2.703125 -2.320312 2.765625 -2.148438 2.859375 -2.015625 C 2.941406 -1.898438 3.054688 -1.816406 3.203125 -1.765625 C 3.347656 -1.710938 3.546875 -1.6875 3.796875 -1.6875 Z M 7.5 -1.6875 "/>
      </g>
    </g>
  </g>
  <g fill="#b20000" fill-opacity="1" transform="matrix(1, 0, 0, 1, -12.034490585327148, 23.7849769592285)">
    <g transform="translate(211.178635, 198.161949)">
      <g>
        <path d="M 24.6875 -35.6875 C 27.632812 -35.6875 29.757812 -34.765625 31.0625 -32.921875 C 32.320312 -31.179688 32.953125 -28.566406 32.953125 -25.078125 L 32.953125 -25.34375 C 32.953125 -21.90625 32.320312 -19.289062 31.0625 -17.5 C 29.757812 -15.675781 27.632812 -14.765625 24.6875 -14.765625 L 9.875 -14.71875 L 9.875 -1.46875 C 9.875 -0.800781 9.710938 -0.378906 9.390625 -0.203125 C 9.078125 -0.0351562 8.832031 0.046875 8.65625 0.046875 L 4.671875 0.046875 C 4.503906 0.046875 4.257812 -0.0351562 3.9375 -0.203125 C 3.625 -0.378906 3.46875 -0.800781 3.46875 -1.46875 L 3.46875 -19.65625 C 3.46875 -20.320312 3.625 -20.734375 3.9375 -20.890625 C 4.257812 -21.054688 4.503906 -21.140625 4.671875 -21.140625 L 23.5625 -21.140625 C 24.65625 -21.140625 25.421875 -21.457031 25.859375 -22.09375 C 26.316406 -22.726562 26.546875 -23.765625 26.546875 -25.203125 C 26.546875 -26.648438 26.316406 -27.691406 25.859375 -28.328125 C 25.421875 -28.960938 24.65625 -29.28125 23.5625 -29.28125 L 4.671875 -29.28125 C 4.503906 -29.28125 4.257812 -29.359375 3.9375 -29.515625 C 3.625 -29.671875 3.46875 -30.082031 3.46875 -30.75 L 3.46875 -34.171875 C 3.46875 -34.867188 3.625 -35.296875 3.9375 -35.453125 C 4.257812 -35.609375 4.503906 -35.6875 4.671875 -35.6875 Z M 24.6875 -35.6875 "/>
      </g>
    </g>
  </g>
  <g fill="#b20000" fill-opacity="1" transform="matrix(1, 0, 0, 1, -12.034490585327148, 23.7849769592285)">
    <g transform="translate(249.759477, 198.161949)">
      <g>
        <path d="M 33 -25.34375 L 33 -25.078125 C 33 -25.109375 33 -25.128906 33 -25.140625 C 33 -25.160156 33 -25.179688 33 -25.203125 C 33 -25.234375 33 -25.253906 33 -25.265625 C 33 -25.285156 33 -25.3125 33 -25.34375 Z M 33.828125 -1.859375 C 34.003906 -1.628906 34.0625 -1.285156 34 -0.828125 C 33.914062 -0.242188 33.582031 0.046875 33 0.046875 L 28.234375 0.046875 C 27.859375 0.046875 27.554688 -0.0390625 27.328125 -0.21875 C 27.242188 -0.269531 27.164062 -0.351562 27.09375 -0.46875 C 27.019531 -0.59375 26.941406 -0.710938 26.859375 -0.828125 L 19.015625 -14.71875 L 9.875 -14.71875 L 9.875 -1.46875 C 9.875 -0.800781 9.722656 -0.378906 9.421875 -0.203125 C 9.117188 -0.0351562 8.863281 0.046875 8.65625 0.046875 L 4.71875 0.046875 C 4.519531 0.046875 4.257812 -0.0351562 3.9375 -0.203125 C 3.625 -0.378906 3.46875 -0.800781 3.46875 -1.46875 L 3.46875 -19.65625 C 3.46875 -20.320312 3.625 -20.734375 3.9375 -20.890625 C 4.257812 -21.054688 4.519531 -21.140625 4.71875 -21.140625 L 23.5625 -21.140625 C 24.65625 -21.140625 25.421875 -21.457031 25.859375 -22.09375 C 26.316406 -22.726562 26.546875 -23.765625 26.546875 -25.203125 C 26.546875 -26.648438 26.316406 -27.691406 25.859375 -28.328125 C 25.421875 -28.960938 24.65625 -29.28125 23.5625 -29.28125 L 4.71875 -29.28125 C 4.519531 -29.28125 4.257812 -29.359375 3.9375 -29.515625 C 3.625 -29.671875 3.46875 -30.082031 3.46875 -30.75 L 3.46875 -34.171875 C 3.46875 -34.867188 3.625 -35.296875 3.9375 -35.453125 C 4.257812 -35.609375 4.519531 -35.6875 4.71875 -35.6875 L 24.6875 -35.6875 C 27.664062 -35.6875 29.800781 -34.765625 31.09375 -32.921875 C 32.332031 -31.128906 32.96875 -28.554688 33 -25.203125 C 32.96875 -21.859375 32.332031 -19.289062 31.09375 -17.5 C 30 -16 28.382812 -15.117188 26.25 -14.859375 Z M 33.828125 -1.859375 "/>
      </g>
    </g>
  </g>
  <g fill="#b20000" fill-opacity="1" transform="matrix(1, 0, 0, 1, -12.034490585327148, 23.7849769592285)">
    <g transform="translate(289.422838, 198.161949)">
      <g>
        <path d="M 32.953125 -32.53125 C 33.796875 -31.488281 34.421875 -30.070312 34.828125 -28.28125 C 34.992188 -27.445312 35.128906 -26.507812 35.234375 -25.46875 C 35.335938 -24.425781 35.390625 -23.3125 35.390625 -22.125 L 35.390625 -13.5625 C 35.390625 -12.34375 35.335938 -11.210938 35.234375 -10.171875 C 35.128906 -9.140625 34.992188 -8.203125 34.828125 -7.359375 C 34.421875 -5.597656 33.796875 -4.171875 32.953125 -3.078125 C 32.066406 -1.953125 30.941406 -1.15625 29.578125 -0.6875 C 28.191406 -0.195312 26.5625 0.046875 24.6875 0.046875 L 14.125 0.046875 C 12.21875 0.046875 10.597656 -0.195312 9.265625 -0.6875 C 7.910156 -1.15625 6.785156 -1.96875 5.890625 -3.125 C 5.023438 -4.25 4.40625 -5.660156 4.03125 -7.359375 C 3.820312 -8.203125 3.675781 -9.140625 3.59375 -10.171875 C 3.507812 -11.210938 3.46875 -12.34375 3.46875 -13.5625 L 3.46875 -22.125 C 3.46875 -24.613281 3.65625 -26.664062 4.03125 -28.28125 C 4.40625 -29.988281 5.023438 -31.40625 5.890625 -32.53125 C 6.785156 -33.625 7.910156 -34.429688 9.265625 -34.953125 C 10.648438 -35.441406 12.269531 -35.6875 14.125 -35.6875 L 24.6875 -35.6875 C 26.5625 -35.6875 28.191406 -35.441406 29.578125 -34.953125 C 30.941406 -34.429688 32.066406 -33.625 32.953125 -32.53125 Z M 28.9375 -22.875 C 28.9375 -23.507812 28.921875 -24.09375 28.890625 -24.625 C 28.859375 -25.15625 28.800781 -25.640625 28.71875 -26.078125 C 28.601562 -26.878906 28.359375 -27.523438 27.984375 -28.015625 C 27.691406 -28.421875 27.257812 -28.738281 26.6875 -28.96875 C 26.394531 -29.0625 26.066406 -29.132812 25.703125 -29.1875 C 25.347656 -29.25 24.9375 -29.28125 24.46875 -29.28125 L 14.34375 -29.28125 C 13.875 -29.28125 13.457031 -29.25 13.09375 -29.1875 C 12.738281 -29.132812 12.414062 -29.0625 12.125 -28.96875 C 11.550781 -28.738281 11.117188 -28.421875 10.828125 -28.015625 C 10.648438 -27.785156 10.503906 -27.503906 10.390625 -27.171875 C 10.273438 -26.847656 10.175781 -26.484375 10.09375 -26.078125 C 10.03125 -25.640625 9.976562 -25.15625 9.9375 -24.625 C 9.894531 -24.09375 9.875 -23.507812 9.875 -22.875 L 9.875 -12.78125 C 9.875 -12.144531 9.894531 -11.554688 9.9375 -11.015625 C 9.976562 -10.484375 10.03125 -10.003906 10.09375 -9.578125 C 10.175781 -9.203125 10.273438 -8.847656 10.390625 -8.515625 C 10.503906 -8.179688 10.648438 -7.898438 10.828125 -7.671875 C 11.117188 -7.203125 11.550781 -6.882812 12.125 -6.71875 C 12.644531 -6.507812 13.382812 -6.40625 14.34375 -6.40625 L 24.46875 -6.40625 C 25.425781 -6.40625 26.164062 -6.507812 26.6875 -6.71875 C 27.257812 -6.882812 27.691406 -7.203125 27.984375 -7.671875 C 28.328125 -8.097656 28.570312 -8.734375 28.71875 -9.578125 C 28.800781 -10.003906 28.859375 -10.484375 28.890625 -11.015625 C 28.921875 -11.554688 28.9375 -12.144531 28.9375 -12.78125 Z M 28.9375 -22.875 "/>
      </g>
    </g>
  </g>
</svg>