<!DOCTYPE svg PUBLIC "-//W3C//DTD SVG 1.1//EN" "http://www.w3.org/Graphics/SVG/1.1/DTD/svg11.dtd">
<!-- Uploaded to: SVG Repo, www.svgrepo.com, Transformed by: SVG Repo Mixer Tools -->
<svg height="800px" width="800px" version="1.1" id="Layer_1" xmlns="http://www.w3.org/2000/svg" xmlns:xlink="http://www.w3.org/1999/xlink" viewBox="0 0 512 512" xml:space="preserve" fill="#ffffff">
<g id="SVGRepo_bgCarrier" stroke-width="0"/>
<g id="SVGRepo_tracerCarrier" stroke-linecap="round" stroke-linejoin="round"/>
<g id="SVGRepo_iconCarrier"> <path style="fill:#7a7a7a;" d="M453.394,163.95h18.87c2.237,0,4.343,1.159,6.192,3.183V83.954c-1.849,2.026-3.954,3.184-6.192,3.184 h-18.87c-1.678,0-3.276-0.677-4.756-1.852v80.513C450.118,164.621,451.716,163.95,453.394,163.95z"/> <polygon style="fill:#ffffff;" points="307.154,28.626 307.154,28.626 307.154,63.418 307.154,63.418 454.536,63.418 454.536,28.626 "/> <path style="fill:#7C7A75;" d="M196.292,399.11c-1.195,0-2.408-0.259-3.559-0.807c-65.851-31.354-98.748-80.822-114.749-116.798 C60.64,242.51,58.895,211.129,58.83,209.811c-0.229-4.574,3.294-8.467,7.869-8.695c4.57-0.237,8.461,3.287,8.694,7.857l0,0 c0.017,0.297,1.754,30.125,18.017,66.403c21.659,48.31,57.475,84.632,106.452,107.952c4.135,1.968,5.891,6.917,3.922,11.053 C202.366,397.364,199.392,399.11,196.292,399.11z"/> <path style="fill:#ffffff;" d="M462.829,234.77c-4.58,0-8.293-3.712-8.293-8.293v-62.96c0-4.581,3.713-8.293,8.293-8.293 c4.581,0,8.293,3.712,8.293,8.293v62.96C471.122,231.058,467.41,234.77,462.829,234.77z"/> <g> <path style="fill:#cc0000;" d="M485.533,96.468v-83.2C485.533,5.941,479.594,0,472.264,0h-18.87 c-7.328,0-13.268,5.941-13.268,13.268v83.2c0,7.328,5.941,13.268,13.268,13.268h18.87 C479.594,109.737,485.533,103.796,485.533,96.468z"/> <path style="fill:#cc0000;" d="M472.264,146.841h-18.87c-7.328,0-13.268,5.941-13.268,13.268v14.646 c0,7.327,5.941,13.268,13.268,13.268h18.87c7.33,0,13.268-5.941,13.268-13.268v-14.646 C485.533,152.782,479.594,146.841,472.264,146.841z"/> </g> <g> <path style="fill:#ffffff;" d="M156.633,243.597l-31.236-36.588c-2.497,5.259-6.473,1.683-11.188,5.709 c-4.717,4.026-28.047-7.143-33.632-5.5l75.797,89.659l18.165,21.276l14.396,16.862c5.268-10.731,31.001-0.285,42.287-4.511 l-56.778-66.046"/> <path style="fill:#ffffff;" d="M176.472,28.626c5.513,5.315,8.608,11.197,8.608,17.397c0,6.197-3.095,12.081-8.608,17.395h120.732 V28.626H176.472z"/> <path style="fill:#ffffff;" d="M134.09,71.989l-53.512,93.522c10.301,1.207,31.478-13.019,38.743-4.508 c0.482,0.562,0.945,1.133,1.391,1.715l53.717-93.577C162.702,67.776,140.933,80.889,134.09,71.989z"/> </g> <path style="fill:#7a7a7a;" d="M368.641,67.426c0,7.328-5.941,13.268-13.268,13.268h-83.2c-7.328,0-13.268-5.941-13.268-13.268 V24.62c0-7.328,5.941-13.268,13.268-13.268h83.2c7.328,0,13.268,5.941,13.268,13.268V67.426z"/> <path style="fill:#7C7A75;" d="M355.372,11.351H327.73v69.343h27.643c7.328,0,13.268-5.941,13.268-13.268V24.62 C368.641,17.292,362.7,11.351,355.372,11.351z"/> <g> <path style="fill:#cc0000;" d="M119.32,161.003c-15.292-17.914-42.211-20.036-60.123-4.745 c-17.914,15.292-20.036,42.211-4.745,60.125c15.292,17.911,42.211,20.034,60.125,4.742 C132.489,205.834,134.614,178.915,119.32,161.003z M97.102,200.658c-6.609,5.641-16.538,4.857-22.179-1.749 c-5.642-6.609-4.858-16.538,1.749-22.182c6.609-5.641,16.536-4.857,22.179,1.751C104.492,185.087,103.711,195.016,97.102,200.658z"/> <path style="fill:#cc0000;" d="M167.908,3.376c-23.553,0-42.645,19.096-42.645,42.647c0,23.553,19.093,42.645,42.645,42.645 c23.553,0,42.647-19.093,42.647-42.645C210.556,22.47,191.461,3.376,167.908,3.376z M167.908,61.756 c-8.688,0-15.731-7.044-15.731-15.733c0-8.688,7.042-15.733,15.731-15.733c8.69,0,15.733,7.044,15.733,15.733 C183.641,54.71,176.599,61.756,167.908,61.756z"/> </g> <path style="fill:#7C7A75;" d="M358.631,486.652l-14.727-32.967c-1.068-2.389-3.44-3.929-6.058-3.929H124.595 c-2.617,0-4.99,1.539-6.058,3.929l-14.727,32.967c-0.917,2.053-0.732,4.429,0.49,6.316c1.223,1.886,3.319,3.024,5.567,3.024h242.707 c2.248,0,4.343-1.138,5.565-3.024C359.363,491.081,359.548,488.704,358.631,486.652z"/> <path style="fill:#cc0000;" d="M231.221,308.65c-26.004,0-47.085,21.079-47.085,47.083v94.024h94.171v-94.024 C278.306,329.729,257.227,308.65,231.221,308.65z M231.221,372.694c-8.69,0-15.733-7.044-15.733-15.733 c0-8.688,7.042-15.733,15.733-15.733c8.688,0,15.731,7.044,15.731,15.733C246.951,365.649,239.909,372.694,231.221,372.694z"/> <g> <path style="fill:#9e0000;" d="M462.328,96.468v-83.2c0-6.761,5.063-12.331,11.603-13.153C473.384,0.048,472.83,0,472.264,0h-18.87 c-7.328,0-13.268,5.941-13.268,13.268v83.2c0,7.328,5.941,13.268,13.268,13.268h18.87c0.566,0,1.12-0.048,1.667-0.115 C467.391,108.799,462.328,103.23,462.328,96.468z"/> <path style="fill:#9e0000;" d="M462.328,174.756v-14.646c0-6.761,5.063-12.331,11.603-13.153c-0.547-0.067-1.101-0.115-1.667-0.115 h-18.87c-7.328,0-13.268,5.941-13.268,13.268v14.646c0,7.327,5.941,13.268,13.268,13.268h18.87c0.566,0,1.12-0.048,1.667-0.115 C467.391,187.086,462.328,181.517,462.328,174.756z"/> </g> <path style="fill:#5c5c5c;" d="M272.063,67.426V24.62c0-7.328,5.941-13.268,13.268-13.268h-22.203 c-7.327,0-13.268,5.941-13.268,13.268v42.806c0,7.328,5.941,13.268,13.268,13.268h22.203 C278.004,80.694,272.063,74.753,272.063,67.426z"/> <g> <path style="fill:#9e0000;" d="M76.655,216.383C61.363,198.47,63.486,171.55,81.4,156.258c4.976-4.248,10.649-7.148,16.573-8.743 c-13.11-3.517-27.672-0.735-38.776,8.743c-17.914,15.292-20.036,42.211-4.745,60.125c11.044,12.935,28.15,17.63,43.55,13.485 C89.962,227.712,82.469,223.192,76.655,216.383z"/> <path style="fill:#9e0000;" d="M147.466,46.023c0-19.71,13.377-36.291,31.545-41.179c-3.542-0.952-7.26-1.468-11.102-1.468 c-23.553,0-42.645,19.096-42.645,42.647c0,23.553,19.093,42.645,42.645,42.645c3.842,0,7.561-0.516,11.102-1.468 C160.842,82.313,147.466,65.733,147.466,46.023z"/> </g> <path style="fill:#6B6861;" d="M126.503,492.967c-1.222-1.886-1.409-4.263-0.49-6.316l14.726-32.967 c1.069-2.389,3.44-3.929,6.057-3.929h-22.201c-2.617,0-4.99,1.539-6.058,3.929l-14.727,32.967c-0.917,2.053-0.732,4.429,0.49,6.316 c1.223,1.886,3.319,3.024,5.567,3.024h22.201C129.821,495.992,127.726,494.854,126.503,492.967z"/> <path style="fill:#9e0000;" d="M242.323,309.978c-3.563-0.86-7.276-1.328-11.102-1.328c-26.004,0-47.085,21.079-47.085,47.083 v94.024h22.203v-94.024C206.338,333.555,221.677,314.969,242.323,309.978z"/> <g> <path style="fill:#7a7a7a;" d="M86.896,212.718c-7.046,0-13.706-3.071-18.278-8.424c-8.602-10.073-7.404-25.27,2.67-33.872 c4.348-3.711,9.883-5.753,15.59-5.753c7.044,0,13.707,3.071,18.28,8.425c8.601,10.077,7.403,25.271-2.672,33.871 C98.141,210.674,92.604,212.718,86.896,212.718z M86.879,181.254c-1.247,0-3.097,0.309-4.822,1.78 c-3.118,2.664-3.49,7.37-0.826,10.489c1.415,1.657,3.48,2.608,5.666,2.608c1.248,0,3.098-0.31,4.822-1.781 c3.119-2.663,3.49-7.367,0.826-10.488C91.129,182.205,89.063,181.254,86.879,181.254z"/> <path style="fill:#7a7a7a;" d="M231.374,380.785c-7.044,0-13.706-3.071-18.278-8.424c-8.601-10.073-7.404-25.269,2.671-33.872 c4.347-3.711,9.883-5.753,15.59-5.753c7.044,0,13.707,3.071,18.281,8.425c8.601,10.077,7.403,25.271-2.673,33.871 C242.619,378.742,237.082,380.785,231.374,380.785z M231.357,349.321c-1.247,0-3.097,0.308-4.821,1.78 c-3.119,2.664-3.491,7.37-0.826,10.489c1.414,1.657,3.48,2.608,5.665,2.608c1.248,0,3.098-0.31,4.823-1.781 c3.119-2.663,3.488-7.367,0.826-10.488C235.607,350.272,233.543,349.321,231.357,349.321z"/> <path style="fill:#7a7a7a;" d="M167.908,70.049c-13.245,0-24.024-10.777-24.024-24.026c0-13.247,10.777-24.026,24.024-24.026 c13.249,0,24.026,10.777,24.026,24.026C191.934,59.27,181.156,70.049,167.908,70.049z M167.908,38.584 c-4.101,0-7.438,3.338-7.438,7.44s3.337,7.44,7.438,7.44c4.103,0,7.44-3.338,7.44-7.44 C175.348,41.921,172.011,38.584,167.908,38.584z"/> </g> <path style="fill:#7a7a7a;" d="M346.796,512H132.665H49.369c-7.654,0-13.858-6.204-13.858-13.858v-3.406 c0-7.654,6.204-13.858,13.858-13.858h83.295h211.488h68.921c7.654,0,13.858,6.204,13.858,13.858v3.406 c0,7.654-6.204,13.858-13.858,13.858h-34.644h-3.623"/> <path style="fill:#5c5c5c;" d="M48.67,498.142v-3.406c0-7.654,6.203-13.858,13.858-13.858H40.325 c-7.654,0-13.858,6.204-13.858,13.858v3.406c0,7.654,6.204,13.858,13.858,13.858h22.203C54.873,512,48.67,505.795,48.67,498.142z"/> </g>
</svg>